<?xml version="1.0" standalone="no"?>
<!DOCTYPE svg PUBLIC "-//W3C//DTD SVG 20010904//EN"
 "http://www.w3.org/TR/2001/REC-SVG-20010904/DTD/svg10.dtd">
<svg version="1.0" xmlns="http://www.w3.org/2000/svg"
 width="250.000000pt" height="250.000000pt" viewBox="0 0 250.000000 250.000000"
 preserveAspectRatio="xMidYMid meet">
<metadata>
Created by potrace 1.16, written by Peter Selinger 2001-2019
</metadata>
<g transform="translate(0.000000,250.000000) scale(0.100000,-0.100000)"
fill="#000000" stroke="none">
<path d="M376 2489 c-65 -16 -174 -79 -230 -135 -61 -62 -119 -165 -136 -244
-8 -40 -10 -281 -8 -896 l3 -841 42 -85 c51 -102 124 -179 214 -227 110 -60
122 -61 595 -61 404 0 436 1 497 20 114 35 221 120 283 226 55 92 66 147 71
336 l5 178 167 0 c185 0 257 12 349 59 117 59 214 175 253 301 19 64 20 88 17
537 l-3 470 -42 85 c-51 102 -124 180 -214 227 -116 63 -85 61 -994 60 -460
-1 -847 -5 -869 -10z m404 -444 l0 -325 -321 0 -321 0 4 188 c3 178 4 190 29
243 48 102 136 178 238 205 27 8 113 13 209 13 l162 1 0 -325z m790 0 l0 -325
-320 0 -320 0 0 325 0 325 320 0 320 0 0 -325z m582 278 c78 -39 139 -102 176
-181 26 -54 27 -66 30 -239 l3 -183 -320 0 -321 0 0 321 0 320 183 -3 183 -3
66 -32z m-1372 -1093 l0 -330 -325 0 -325 0 0 330 0 330 325 0 325 0 0 -330z
m790 0 l0 -330 -320 0 -320 0 0 330 0 330 320 0 320 0 0 -330z m788 133 c-3
-193 -4 -199 -31 -255 -37 -75 -128 -160 -202 -187 -49 -18 -78 -21 -230 -21
l-175 0 0 330 0 330 321 0 321 0 -4 -197z m-1578 -919 l0 -306 -188 4 c-178 3
-190 4 -244 30 -79 37 -142 98 -181 177 -32 65 -32 67 -36 233 l-3 168 326 0
326 0 0 -306z m788 139 c-4 -131 -9 -168 -27 -215 -31 -80 -105 -159 -189
-200 -66 -33 -67 -33 -244 -36 l-178 -4 0 306 0 306 321 0 322 0 -5 -157z"/>
</g>
</svg>
